<svg display="none" xmlns="http://www.w3.org/2000/svg">
<symbol width="72" height="73" viewBox="0 0 72 73" id="play-icon">
<path d="M35.5156 0C15.9311 0 0 16.1539 0 36.0089C0 55.8639 15.9311 72.0178 35.5156 72.0178C55.1002 72.0178 71.0313 55.8639 71.0313 36.0089C71.0313 16.1539 55.1002 0 35.5156 0ZM35.5156 69.0171C17.5641 69.0171 2.95959 54.2097 2.95959 36.0089C2.95959 17.8081 17.5641 3.0007 35.5156 3.0007C53.4671 3.0007 68.0717 17.8081 68.0717 36.0089C68.0717 54.2097 53.4671 69.0171 35.5156 69.0171Z" fill="orange"/>
<path d="M49.635 34.7474L28.9176 21.244C28.4638 20.9437 27.8771 20.9275 27.4089 21.1883C26.9319 21.452 26.6371 21.9562 26.6371 22.5056V49.5123C26.6371 50.0617 26.9319 50.5658 27.4089 50.8295C27.6285 50.9512 27.8742 51.0127 28.117 51.0127C28.3944 51.0127 28.6748 50.9335 28.9176 50.7738L49.635 37.2705C50.057 36.9951 50.3143 36.5188 50.3143 36.0089C50.3143 35.499 50.057 35.0229 49.635 34.7474ZM29.5967 46.7635V25.2544L46.0973 36.0089L29.5967 46.7635Z" fill="orange"/>
</symbol>
</svg>








